<mxfile host="Electron" modified="2024-04-29T11:40:53.790Z" agent="Mozilla/5.0 (Windows NT 10.0; Win64; x64) AppleWebKit/537.36 (KHTML, like Gecko) draw.io/21.6.1 Chrome/112.0.5615.204 Electron/24.6.1 Safari/537.36" etag="-A5d_IEoEjnxPXOCiU6l" version="21.6.1" type="device">
  <diagram name="Test2" id="nykNHn463SW9v7BsX8j2">
    <mxGraphModel dx="394" dy="230" grid="1" gridSize="10" guides="1" tooltips="1" connect="1" arrows="1" fold="1" page="1" pageScale="1" pageWidth="827" pageHeight="1169" math="0" shadow="0">
      <root>
        <mxCell id="0" />
        <mxCell id="1" parent="0" />
        <mxCell id="iUJ6JxmStx1WilnGTJF3-8" style="edgeStyle=none;rounded=0;orthogonalLoop=1;jettySize=auto;html=1;" parent="1" source="iUJ6JxmStx1WilnGTJF3-2" target="iUJ6JxmStx1WilnGTJF3-5" edge="1">
          <mxGeometry relative="1" as="geometry" />
        </mxCell>
        <mxCell id="iUJ6JxmStx1WilnGTJF3-10" value="0.5" style="edgeLabel;html=1;align=center;verticalAlign=middle;resizable=0;points=[];" parent="iUJ6JxmStx1WilnGTJF3-8" vertex="1" connectable="0">
          <mxGeometry x="-0.1952" y="-1" relative="1" as="geometry">
            <mxPoint as="offset" />
          </mxGeometry>
        </mxCell>
        <mxCell id="iUJ6JxmStx1WilnGTJF3-2" value="i:1" style="ellipse;whiteSpace=wrap;html=1;aspect=fixed;" parent="1" vertex="1">
          <mxGeometry x="90" y="120" width="50" height="50" as="geometry" />
        </mxCell>
        <mxCell id="iUJ6JxmStx1WilnGTJF3-9" style="edgeStyle=none;rounded=0;orthogonalLoop=1;jettySize=auto;html=1;" parent="1" source="iUJ6JxmStx1WilnGTJF3-3" target="iUJ6JxmStx1WilnGTJF3-5" edge="1">
          <mxGeometry relative="1" as="geometry" />
        </mxCell>
        <mxCell id="iUJ6JxmStx1WilnGTJF3-11" value="0.5" style="edgeLabel;html=1;align=center;verticalAlign=middle;resizable=0;points=[];" parent="iUJ6JxmStx1WilnGTJF3-9" vertex="1" connectable="0">
          <mxGeometry x="-0.2882" y="1" relative="1" as="geometry">
            <mxPoint as="offset" />
          </mxGeometry>
        </mxCell>
        <mxCell id="iUJ6JxmStx1WilnGTJF3-3" value="i:2" style="ellipse;whiteSpace=wrap;html=1;aspect=fixed;" parent="1" vertex="1">
          <mxGeometry x="230" y="100" width="50" height="50" as="geometry" />
        </mxCell>
        <mxCell id="iUJ6JxmStx1WilnGTJF3-5" value="Lb:4" style="ellipse;whiteSpace=wrap;html=1;aspect=fixed;" parent="1" vertex="1">
          <mxGeometry x="180" y="300" width="50" height="50" as="geometry" />
        </mxCell>
        <mxCell id="ykWVu8xKBMtyo3ibjXoU-2" style="edgeStyle=none;rounded=0;orthogonalLoop=1;jettySize=auto;html=1;entryX=1;entryY=0.5;entryDx=0;entryDy=0;" parent="1" source="ykWVu8xKBMtyo3ibjXoU-1" target="iUJ6JxmStx1WilnGTJF3-5" edge="1">
          <mxGeometry relative="1" as="geometry" />
        </mxCell>
        <mxCell id="ykWVu8xKBMtyo3ibjXoU-4" value="-1.0" style="edgeLabel;html=1;align=center;verticalAlign=middle;resizable=0;points=[];" parent="ykWVu8xKBMtyo3ibjXoU-2" vertex="1" connectable="0">
          <mxGeometry x="-0.4233" y="-2" relative="1" as="geometry">
            <mxPoint y="1" as="offset" />
          </mxGeometry>
        </mxCell>
        <mxCell id="ykWVu8xKBMtyo3ibjXoU-1" value="B:3" style="ellipse;whiteSpace=wrap;html=1;aspect=fixed;" parent="1" vertex="1">
          <mxGeometry x="364" y="300" width="50" height="50" as="geometry" />
        </mxCell>
        <mxCell id="MjzPSvKTm0XQqFTvyfAw-1" value="Typ:Nr" style="ellipse;whiteSpace=wrap;html=1;aspect=fixed;" vertex="1" parent="1">
          <mxGeometry x="570" y="30" width="60" height="60" as="geometry" />
        </mxCell>
      </root>
    </mxGraphModel>
  </diagram>
</mxfile>
